<svg id="Layer_1" data-name="Layer 1" xmlns="http://www.w3.org/2000/svg" xmlns:xlink="http://www.w3.org/1999/xlink" viewBox="0 0 314.04 314.04"><defs><style>.cls-1{fill:#c70700;}.cls-2,.cls-6{fill:#fff;}.cls-2,.cls-3{fill-rule:evenodd;}.cls-4{fill:#fbb03b;}.cls-5,.cls-7{fill:none;}.cls-5{stroke:#000;stroke-miterlimit:10;stroke-width:7.2px;}</style><symbol id="reviewed" data-name="reviewed" viewBox="0 0 176.14 26.06"><path class="cls-1" d="M17.38,8.06,12.16,12.6a3.77,3.77,0,0,0-2.48-1A3,3,0,0,0,8,12.1a2.44,2.44,0,0,0-1,2.16V25.85H0V6.48H6.73V8.06a8,8,0,0,1,5.35-1.8A7.86,7.86,0,0,1,17.38,8.06Z"/><path class="cls-1" d="M39.3,18.07H25.75a2.7,2.7,0,0,0,1.08,2.13,4.39,4.39,0,0,0,2.92.9,6.93,6.93,0,0,0,4.67-1.62L38.54,23a12.65,12.65,0,0,1-3.87,2.33,14.42,14.42,0,0,1-4.92.73Q19,26.06,19,16.16a9.46,9.46,0,0,1,2.8-7.29,10.32,10.32,0,0,1,7.34-2.61A10.57,10.57,0,0,1,36.69,9a8.61,8.61,0,0,1,2.61,6.48Zm-6.82-3.92a2.85,2.85,0,0,0-.9-2.2,3.5,3.5,0,0,0-2.46-.83,3.19,3.19,0,0,0-3,1.52,3.22,3.22,0,0,0-.38,1.51Z"/><path class="cls-1" d="M62.82,6.48,54.49,25.85H49.23L40.9,6.48h7.24l3.74,10,3.71-10Z"/><path class="cls-1" d="M72.33,4.5h-6.9V0h6.9Zm0,21.35h-6.9V7.24h6.9Z"/><path class="cls-1" d="M96.87,18.07H83.32a2.69,2.69,0,0,0,1.07,2.13,4.39,4.39,0,0,0,2.92.9A6.91,6.91,0,0,0,92,19.48L96.11,23a12.89,12.89,0,0,1-3.87,2.33,14.52,14.52,0,0,1-4.93.73q-10.77,0-10.77-9.9a9.46,9.46,0,0,1,2.8-7.29,10.33,10.33,0,0,1,7.34-2.61A10.61,10.61,0,0,1,94.26,9a8.61,8.61,0,0,1,2.61,6.48Zm-6.82-3.92a2.82,2.82,0,0,0-.91-2.2,3.5,3.5,0,0,0-2.46-.83,3.19,3.19,0,0,0-3,1.52,3.21,3.21,0,0,0-.37,1.51Z"/><path class="cls-1" d="M131.29,6.48l-6.82,19.37H119l-4.08-10.62-4.09,10.62h-5.51L98.46,6.48h7.28l2.82,10,3.92-10h4.79l3.92,10,2.82-10Z"/><path class="cls-1" d="M153.21,18.07H139.66a2.72,2.72,0,0,0,1.07,2.13,4.42,4.42,0,0,0,2.93.9,6.93,6.93,0,0,0,4.67-1.62L152.45,23a12.65,12.65,0,0,1-3.87,2.33,14.46,14.46,0,0,1-4.92.73q-10.77,0-10.77-9.9a9.49,9.49,0,0,1,2.79-7.29A10.36,10.36,0,0,1,143,6.26,10.58,10.58,0,0,1,150.6,9a8.61,8.61,0,0,1,2.61,6.48Zm-6.82-3.92a2.85,2.85,0,0,0-.9-2.2,3.52,3.52,0,0,0-2.46-.83,3.18,3.18,0,0,0-3,1.52,3.22,3.22,0,0,0-.38,1.51Z"/><path class="cls-1" d="M176.14,25.85h-6.69V24.26a7.73,7.73,0,0,1-5.21,1.8,8.27,8.27,0,0,1-5.52-1.76,6,6,0,0,1-1.89-3.71,32.73,32.73,0,0,1-.21-4.43c0-1,0-1.92,0-2.66a12.9,12.9,0,0,1,.17-1.76A5.85,5.85,0,0,1,158.72,8a8.12,8.12,0,0,1,5.47-1.77,7.49,7.49,0,0,1,5.05,1.62V.22h6.9Zm-6.9-9.69a8.16,8.16,0,0,0-.46-3.34,3,3,0,0,0-4.8,0,8.45,8.45,0,0,0-.46,3.34,8.18,8.18,0,0,0,.46,3.35,3,3,0,0,0,4.8,0A8.51,8.51,0,0,0,169.24,16.16Z"/></symbol><symbol id="_5" data-name="/5" viewBox="0 0 19.67 18.08"><path d="M9.12,0,3.17,18.08H0L6,0Z"/><path d="M19.67,11.4a7.41,7.41,0,0,1-.28,2.27,4.27,4.27,0,0,1-1.1,1.68,4.59,4.59,0,0,1-3.44,1.28,4.73,4.73,0,0,1-3.52-1.3,4.27,4.27,0,0,1-.94-1.46A5,5,0,0,1,10,12h3.43c.11,1.05.57,1.57,1.39,1.57a1.32,1.32,0,0,0,1-.41,2.46,2.46,0,0,0,.42-1.71c0-1.41-.47-2.12-1.42-2.12a1.48,1.48,0,0,0-1.42,1.07H10.3V1.55h9.06V4.66H13.41V7a3.26,3.26,0,0,1,2-.59,3.85,3.85,0,0,1,2.87,1A5.4,5.4,0,0,1,19.67,11.4Z"/></symbol></defs><title>MTBR EditorReviewed blank reviewed symbol</title><path class="cls-2" d="M314,164.2V149.84h-5.16c-.21-4.1-.53-8.14-1.06-12.13l5.05-.9-2.5-14.1-5.05.85c-.91-4-1.92-7.92-3.14-11.75l4.84-1.76-4.89-13.46-4.85,1.71c-1.59-3.73-3.29-7.4-5.15-11l4.41-2.56-7.13-12.44-4.47,2.6c-2.18-3.45-4.52-6.75-7-10l4-3.29-9.25-11-3.94,3.36q-4.14-4.56-8.62-8.62l3.3-4-11-9.2-3.29,3.93c-3.25-2.44-6.55-4.78-10-7l2.55-4.47-12.39-7.18-2.56,4.46c-3.61-1.86-7.28-3.61-11.06-5.15l1.76-4.85L204,7l-1.76,4.79c-3.88-1.17-7.76-2.24-11.75-3.14l.85-5-14.1-2.55-.9,5.1c-4-.53-8.09-.9-12.13-1.06V0H149.84V5.16c-4.1.16-8.14.53-12.13,1.06l-.9-5.1-14.1,2.5.85,5.05c-3.93.9-7.87,2-11.75,3.14L110.05,7,96.59,11.91l1.76,4.85c-3.78,1.54-7.5,3.29-11.06,5.15l-2.56-4.46L72.29,24.63l2.6,4.47c-3.45,2.18-6.75,4.52-10,7L61.6,32.13l-11,9.2,3.36,3.94c-3,2.76-5.86,5.63-8.62,8.67l-4-3.36-9.2,11,3.93,3.29c-2.44,3.25-4.78,6.55-7,10l-4.47-2.55L17.45,84.73l4.46,2.56c-1.86,3.61-3.61,7.28-5.15,11l-4.85-1.71L7,110.05l4.79,1.76c-1.17,3.83-2.24,7.76-3.14,11.75l-5-.85-2.45,14.1,5.05.9c-.53,4-.85,8-1.06,12.13H0V164.2H5.16c.21,4.1.53,8.14,1.06,12.13l-5,.9,2.45,14.1,5.05-.91c.9,4.05,2,7.93,3.14,11.81L7,204l4.89,13.46,4.85-1.76c1.54,3.78,3.29,7.45,5.15,11.06l-4.46,2.56,7.18,12.39,4.47-2.55c2.18,3.45,4.52,6.75,7,10l-3.93,3.29,9.2,11,4-3.36c2.76,3,5.64,5.86,8.62,8.62l-3.36,4,11,9.2L64.89,278c3.25,2.44,6.55,4.78,10,7l-2.6,4.47,12.44,7.18,2.56-4.46c3.56,1.86,7.28,3.56,11.06,5.15l-1.76,4.85L110.05,307l1.76-4.79c3.88,1.17,7.82,2.24,11.75,3.09l-.85,5.05,14.1,2.5.9-5.05c4,.53,8,.9,12.13,1.06V314H164.2v-5.16c4-.16,8.14-.53,12.13-1.06l.9,5.05,14.1-2.45-.85-5.1c4-.85,7.87-1.92,11.75-3.09L204,307l13.46-4.89-1.76-4.85c3.78-1.54,7.45-3.29,11.06-5.15l2.56,4.46,12.39-7.18L239.15,285c3.45-2.24,6.75-4.58,10-7l3.29,3.93,11-9.2-3.3-3.94c3-2.81,5.86-5.63,8.62-8.67l3.94,3.36,9.25-11-4-3.29c2.5-3.25,4.84-6.55,7-10l4.47,2.55,7.13-12.39-4.41-2.56c1.86-3.61,3.56-7.28,5.15-11.06l4.85,1.76L307,204l-4.84-1.76c1.22-3.88,2.23-7.76,3.14-11.81l5.05.91,2.5-14.1-5.05-.9c.53-4,.85-8,1.06-12.13Z"/><path class="cls-3" d="M310.9,164.06V150h-5.06c-.21-4-.52-8-1-11.88l4.95-.89L307.3,123.4l-4.95.83c-.89-3.91-1.88-7.76-3.07-11.52L304,111l-4.8-13.19-4.74,1.67c-1.56-3.65-3.23-7.24-5.06-10.79l4.33-2.5-7-12.2-4.37,2.56c-2.14-3.39-4.43-6.62-6.88-9.8l3.9-3.24-9.07-10.79L266.49,56q-4.07-4.45-8.45-8.45l3.23-3.91-10.73-9-3.24,3.85c-3.18-2.4-6.41-4.69-9.8-6.83L240,27.28l-12.15-7-2.5,4.38c-3.55-1.83-7.14-3.55-10.84-5.06l1.72-4.74L203.05,10l-1.72,4.69c-3.81-1.14-7.61-2.19-11.52-3.07l.83-4.9-13.81-2.5-.89,5c-3.91-.52-7.92-.89-11.88-1V3.14H150V8.2c-4,.15-8,.52-11.88,1l-.89-5L123.4,6.69l.83,5c-3.86.88-7.71,1.93-11.52,3.07L111,10,97.8,14.82l1.72,4.74c-3.7,1.51-7.35,3.23-10.84,5.06l-2.5-4.38-12.2,7,2.56,4.37c-3.39,2.14-6.62,4.43-9.8,6.83L63.5,34.63l-10.79,9L56,47.5C53.08,50.21,50.26,53,47.55,56l-3.91-3.29-9,10.79,3.85,3.24c-2.4,3.18-4.69,6.41-6.83,9.74L27.28,74l-7,12.2,4.38,2.5c-1.83,3.55-3.55,7.14-5.06,10.79L14.82,97.8,10,111l4.69,1.72c-1.14,3.76-2.19,7.61-3.07,11.52l-4.95-.83-2.4,13.81,5,.89C8.72,142,8.41,146,8.2,150H3.14v14.08H8.2c.21,4,.52,8,1,11.88l-4.95.89,2.4,13.81,5-.88c.88,4,1.93,7.76,3.07,11.57L10,203.05l4.8,13.19,4.74-1.72c1.51,3.7,3.23,7.29,5.06,10.84l-4.38,2.5,7,12.15,4.37-2.51c2.14,3.39,4.43,6.62,6.83,9.8l-3.85,3.24,9,10.79L47.55,258c2.71,3,5.53,5.74,8.45,8.45l-3.29,3.91,10.79,9,3.24-3.85c3.18,2.4,6.41,4.69,9.8,6.83L74,286.76l12.2,7,2.5-4.38c3.49,1.83,7.14,3.5,10.84,5.06l-1.72,4.74L111,304l1.72-4.69c3.81,1.14,7.66,2.19,11.52,3l-.83,4.95,13.81,2.45.89-4.95c3.91.52,7.87.89,11.88,1v5.06h14.08v-5.06c4-.15,8-.52,11.88-1l.89,4.95,13.81-2.4-.83-5c3.91-.83,7.71-1.88,11.52-3l1.72,4.69,13.19-4.8-1.72-4.74c3.7-1.51,7.29-3.23,10.84-5.06l2.5,4.38,12.15-7-2.51-4.32c3.39-2.19,6.62-4.48,9.8-6.88l3.24,3.85,10.73-9L258,266.54c2.92-2.76,5.74-5.53,8.45-8.5l3.85,3.29,9.07-10.79-3.9-3.24c2.45-3.18,4.74-6.41,6.88-9.8l4.37,2.51,7-12.15-4.33-2.5c1.83-3.55,3.5-7.14,5.06-10.84l4.74,1.72,4.8-13.19-4.74-1.72c1.19-3.81,2.18-7.61,3.07-11.57l4.95.88,2.45-13.81-4.95-.89c.52-3.91.83-7.87,1-11.88Z"/><circle class="cls-4" cx="157.55" cy="157.02" r="131.52"/><circle class="cls-5" cx="157.02" cy="157.02" r="120.27"/><circle class="cls-6" cx="157.55" cy="157.02" r="122.4"/><path d="M109.94,88.36c3.55.55,7.35,1.34,10.65,5,1.25,1.3,4,5.26,4,7.64v19.87H112.2V102.64a5,5,0,0,0-5-3.67,37.39,37.39,0,0,1-6.1,0v21.66H89.91V99a35.41,35.41,0,0,1-6.09,0c-1,0-5.34.79-5.34,4v17.45H65.83l.25-18.79c0-6.34,9.35-13.48,14.94-13.23ZM245.83,87V99c-1,0-2.29-.55-3.55-.3-.5,0-4.34,1.88-4.34,3.47v18H225.05l.25-18.27c-.25-7.64,10.14-15.07,16.23-14.82Zm-71.74.79s-.25.29.5.29c.5,0,2-.79,2.8-.79h27.37c10.15,1.3,15.7,8.47,15.7,16.11,0,9.56-8.85,16.69-16.2,16.69H177.89c-7.64,0-16-8.47-16-14.31l-.25-27.5h12.44Zm-25.88-10V89.45h7.85V99h-7.34v6.59c1.79,4,5.09,3.17,7.84,3.46v11.61h-4.8c-5.84,0-15.73-7.39-15.73-14.28V99h-7.1V88.91H136V77.81Z"/><rect class="cls-6" x="175.44" y="98.95" width="32.85" height="9.23" rx="3.18" ry="3.18"/><circle class="cls-7" cx="152.02" cy="156.02" r="120.27"/><use width="176.14" height="26.06" transform="translate(67.93 124.35)" xlink:href="#reviewed"/><use width="19.67" height="18.08" transform="translate(222.21 227.09)" xlink:href="#_5"/></svg>